<?xml version="1.0" encoding="UTF-8"?>
<svg width="256" height="256" viewBox="0 0 256 256" xmlns="http://www.w3.org/2000/svg" role="img" aria-label="Ayisha mark">
  <defs>
    <linearGradient id="g" x1="0" y1="0" x2="1" y2="1">
      <stop offset="0" stop-color="#19b6bf"/>
      <stop offset="1" stop-color="#0b9aa2"/>
    </linearGradient>
  </defs>
  <circle cx="128" cy="128" r="118" fill="url(#g)" opacity="0.18"/>
  <path d="M128 48c34 0 58 22 58 54 0 26-18 43-38 52 9 6 18 15 25 28 6 10-8 18-15 10-18-22-32-29-52-29-24 0-44-9-55-24-9-12-13-26-13-41 0-40 33-60 90-60z"
        fill="#19b6bf" opacity="0.35"/>
  <path d="M86 168c26-8 52-8 78 0 8 3 12 12 9 20-2 6-8 10-15 10H92c-7 0-13-4-15-10-3-8 1-17 9-20z"
        fill="#f3b8c7" opacity="0.55"/>
  <text x="128" y="132" text-anchor="middle" font-family="Nunito, Arial" font-size="44" fill="#075c61" font-weight="700">JA</text>
</svg>
